<svg width="32" height="36" viewBox="0 0 32 36" fill="none" xmlns="http://www.w3.org/2000/svg">
<path d="M16 0.817627C11.6533 0.817627 11.1107 0.839253 9.404 0.921434C7.7 1.00794 6.54 1.29773 5.52 1.72593C4.468 2.16711 3.57467 2.75968 2.68533 3.72132C1.796 4.68298 1.24667 5.64752 0.84 6.78651C0.444 7.88945 0.174667 9.14378 0.096 10.9863C0.016 12.8318 0 13.4186 0 18.1187C0 22.8189 0.02 23.4056 0.096 25.2511C0.176 27.0923 0.444 28.348 0.84 29.4509C1.248 30.5871 1.796 31.5544 2.68533 32.5162C3.57467 33.4764 4.46667 34.0717 5.52 34.5115C6.54133 34.9383 7.70133 35.2309 9.404 35.316C11.1107 35.4025 11.6533 35.4198 16 35.4198C20.3467 35.4198 20.8893 35.3982 22.596 35.316C24.2987 35.2295 25.46 34.9383 26.48 34.5115C27.5307 34.0703 28.4253 33.4764 29.3147 32.5162C30.2027 31.5544 30.7533 30.5914 31.16 29.4509C31.5547 28.348 31.8253 27.0923 31.904 25.2511C31.984 23.4056 32 22.8189 32 18.1187C32 13.4186 31.98 12.8318 31.904 10.9863C31.824 9.14522 31.5547 7.88801 31.16 6.78651C30.752 5.64896 30.2027 4.68298 29.3147 3.72132C28.4253 2.75968 27.5347 2.16567 26.48 1.72593C25.46 1.29773 24.2987 1.0065 22.596 0.921434C20.8893 0.834928 20.3467 0.817627 16 0.817627ZM16 3.93182C20.2707 3.93182 20.78 3.95489 22.4667 4.03419C24.0267 4.11349 24.8733 4.39319 25.436 4.63252C26.1853 4.94538 26.716 5.32024 27.2787 5.92434C27.8373 6.52988 28.184 7.10514 28.4733 7.9154C28.692 8.52383 28.9533 9.43934 29.024 11.1262C29.1 12.9514 29.1173 13.4993 29.1173 18.1187C29.1173 22.7381 29.0973 23.2874 29.0187 25.1113C28.9373 26.7981 28.6773 27.7136 28.4573 28.3221C28.1587 29.1323 27.8187 29.7061 27.2587 30.3146C26.7 30.9186 26.16 31.2935 25.4187 31.6063C24.8587 31.8428 23.9987 32.1254 22.4387 32.2018C20.74 32.284 20.24 32.3027 15.96 32.3027C11.6787 32.3027 11.1787 32.2811 9.48133 32.1961C7.92 32.1081 7.06 31.8269 6.5 31.589C5.74133 31.2662 5.22 30.8985 4.66133 30.293C4.1 29.6888 3.74133 29.1049 3.46133 28.3033C3.24133 27.6978 2.98267 26.7679 2.90133 25.081C2.84133 23.2644 2.82 22.7035 2.82 18.0971C2.82 13.4893 2.84133 12.927 2.90133 11.0887C2.98267 9.40186 3.24133 8.47336 3.46133 7.86783C3.74133 7.04602 4.1 6.48374 4.66133 5.87676C5.22 5.27266 5.74133 4.88339 6.5 4.58205C7.06 4.34273 7.90133 4.06158 9.46133 3.97508C11.1613 3.9102 11.6613 3.88857 15.94 3.88857L16 3.93182ZM16 9.23461C11.46 9.23461 7.784 13.2139 7.784 18.1187C7.784 23.0279 11.464 27.0028 16 27.0028C20.54 27.0028 24.216 23.0236 24.216 18.1187C24.216 13.2095 20.536 9.23461 16 9.23461ZM16 23.8857C13.0533 23.8857 10.6667 21.305 10.6667 18.1187C10.6667 14.9324 13.0533 12.3517 16 12.3517C18.9467 12.3517 21.3333 14.9324 21.3333 18.1187C21.3333 21.305 18.9467 23.8857 16 23.8857ZM26.4613 8.88426C26.4613 10.0305 25.6 10.9604 24.5413 10.9604C23.4813 10.9604 22.6213 10.029 22.6213 8.88426C22.6213 7.7395 23.4827 6.80957 24.5413 6.80957C25.5987 6.80813 26.4613 7.7395 26.4613 8.88426Z" fill="white"/>
</svg>
