<svg width="32" height="25" viewBox="0 0 32 25" fill="none" xmlns="http://www.w3.org/2000/svg">
<path d="M28.8012 0H3.19884C1.44005 0 0.0153606 1.40618 0.0153606 3.12547L0 21.8745C0 23.5938 1.44005 25 3.19884 25H28.8012C30.5599 25 32 23.5938 32 21.8745V3.12547C32 1.40618 30.5599 0 28.8012 0ZM28.1598 6.64093L16.8487 13.5481C16.5935 13.7015 16.2997 13.7827 16 13.7827C15.7003 13.7827 15.4065 13.7015 15.1513 13.5481L3.84015 6.64093C3.68195 6.55187 3.54373 6.43262 3.43376 6.29026C3.3238 6.14792 3.24433 5.98538 3.20009 5.81239C3.15585 5.63939 3.14777 5.45945 3.17632 5.28334C3.20487 5.10723 3.26946 4.93853 3.36624 4.78732C3.46303 4.63611 3.59 4.5055 3.73963 4.40326C3.88924 4.30102 4.0584 4.22929 4.23705 4.1923C4.41567 4.1553 4.60011 4.15384 4.77933 4.18798C4.95857 4.22213 5.12892 4.2912 5.28021 4.39104L16 10.9382L26.7198 4.39104C26.8711 4.2912 27.0414 4.22213 27.2207 4.18798C27.3999 4.15384 27.5842 4.1553 27.763 4.1923C27.9415 4.22929 28.1107 4.30102 28.2603 4.40326C28.41 4.5055 28.537 4.63611 28.6337 4.78732C28.7305 4.93853 28.7952 5.10723 28.8236 5.28334C28.8522 5.45945 28.8442 5.63939 28.7998 5.81239C28.7556 5.98538 28.6762 6.14792 28.5661 6.29026C28.4563 6.43262 28.3181 6.55187 28.1598 6.64093Z" fill="white"/>
</svg>
