<svg width="32" height="25" viewBox="0 0 32 25" fill="none" xmlns="http://www.w3.org/2000/svg">
<path d="M31.3307 4.03181C31.1499 3.29547 30.7934 2.6234 30.2968 2.08293C29.8003 1.54245 29.1811 1.15253 28.5013 0.952216C26.0067 0.224121 16 0.224121 16 0.224121C16 0.224121 5.99333 0.224121 3.49733 0.952216C2.81788 1.15289 2.19906 1.54295 1.70277 2.08338C1.20648 2.62383 0.850122 3.2957 0.669333 4.03181C0 6.74808 0 12.4142 0 12.4142C0 12.4142 0 18.0803 0.669333 20.7966C0.850115 21.533 1.20663 22.205 1.70319 22.7454C2.19974 23.2859 2.8189 23.6758 3.49867 23.8762C5.99333 24.6042 16 24.6042 16 24.6042C16 24.6042 26.0067 24.6042 28.5027 23.8762C29.1825 23.676 29.8017 23.2861 30.2983 22.7457C30.7949 22.2051 31.1513 21.533 31.332 20.7966C32 18.0803 32 12.4142 32 12.4142C32 12.4142 32 6.74808 31.3307 4.03181ZM12.7267 17.5584V7.27004L21.0907 12.4142L12.7267 17.5584Z" fill="white"/>
</svg>
