<svg width="275" height="40" viewBox="0 0 275 40" fill="none" xmlns="http://www.w3.org/2000/svg">
<path d="M0.149902 0.795001H13.2899C17.1899 0.795001 20.0099 1.275 21.7499 2.235C23.4899 3.165 24.3599 4.74 24.3599 6.96V12.09C24.3599 13.8 23.7449 15.15 22.5149 16.14C21.3149 17.1 19.7099 17.715 17.6999 17.985L26.1599 30H18.0599L10.4099 18.525H7.1699V30H0.149902V0.795001ZM13.1999 13.89C14.8499 13.89 15.9749 13.68 16.5749 13.26C17.1749 12.81 17.4749 11.955 17.4749 10.695V8.625C17.4749 7.545 17.1449 6.81 16.4849 6.42C15.8549 6 14.7599 5.79 13.1999 5.79H7.1699V13.89H13.1999Z" fill="#141414"/>
<path d="M40.3785 30.45C39.0285 30.45 37.9185 30.405 37.0485 30.315C36.1785 30.225 35.2485 30.045 34.2585 29.775C33.1785 29.475 32.3085 29.055 31.6485 28.515C30.9885 27.945 30.4335 27.15 29.9835 26.13C29.5335 25.14 29.3085 23.94 29.3085 22.53V16.095C29.3085 14.655 29.5335 13.395 29.9835 12.315C30.4335 11.235 31.0185 10.395 31.7385 9.795C32.3685 9.285 33.1935 8.865 34.2135 8.535C35.2635 8.175 36.2835 7.95 37.2735 7.86C38.4135 7.8 39.4485 7.77 40.3785 7.77C41.7585 7.77 42.8535 7.815 43.6635 7.905C44.5035 7.965 45.4185 8.145 46.4085 8.445C47.4885 8.775 48.3585 9.225 49.0185 9.795C49.7085 10.365 50.2935 11.175 50.7735 12.225C51.2235 13.305 51.4485 14.595 51.4485 16.095V22.53C51.4485 23.88 51.2235 25.065 50.7735 26.085C50.3535 27.105 49.7985 27.9 49.1085 28.47C48.5085 28.98 47.6835 29.4 46.6335 29.73C45.6135 30.03 44.6085 30.225 43.6185 30.315C42.7185 30.405 41.6385 30.45 40.3785 30.45ZM40.3785 26.355C41.6085 26.355 42.5385 26.265 43.1685 26.085C43.7985 25.875 44.2335 25.56 44.4735 25.14C44.7435 24.72 44.8785 24.105 44.8785 23.295V15.06C44.8785 13.86 44.5635 13.02 43.9335 12.54C43.3035 12.06 42.1185 11.82 40.3785 11.82C38.6385 11.82 37.4535 12.06 36.8235 12.54C36.1935 13.02 35.8785 13.86 35.8785 15.06V23.295C35.8785 24.105 35.9985 24.72 36.2385 25.14C36.5085 25.56 36.9585 25.875 37.5885 26.085C38.2185 26.265 39.1485 26.355 40.3785 26.355Z" fill="#141414"/>
<path d="M65.3894 39.9C61.8494 39.9 59.2244 39.795 57.5144 39.585V35.175C60.3344 35.565 62.9594 35.76 65.3894 35.76C67.6094 35.76 69.1994 35.4 70.1594 34.68C71.1194 33.96 71.5994 32.76 71.5994 31.08V27.57C71.0594 28.35 70.5344 28.95 70.0244 29.37C69.5144 29.76 68.8394 30.03 67.9994 30.18C67.1894 30.36 66.0644 30.45 64.6244 30.45C62.4944 30.45 60.7994 30.255 59.5394 29.865C58.2794 29.445 57.3644 28.77 56.7944 27.84C56.2244 26.88 55.9394 25.56 55.9394 23.88V15.375C55.9394 13.365 56.1944 11.82 56.7044 10.74C57.2444 9.66 58.1444 8.895 59.4044 8.445C60.6944 7.995 62.5394 7.77 64.9394 7.77C66.4994 7.77 67.6994 7.86 68.5394 8.04C69.3493 8.22 69.9644 8.49 70.3844 8.85C70.8044 9.21 71.2844 9.825 71.8244 10.695V8.22H78.1694V31.17C78.1694 34.26 77.1044 36.48 74.9744 37.83C72.8744 39.21 69.6794 39.9 65.3894 39.9ZM66.9644 26.355C68.2544 26.355 69.2144 26.265 69.8444 26.085C70.5044 25.905 70.9544 25.62 71.1944 25.23C71.4644 24.81 71.5994 24.225 71.5994 23.475V14.7C71.5994 13.89 71.4794 13.29 71.2394 12.9C70.9994 12.48 70.5344 12.195 69.8444 12.045C69.1544 11.895 68.0744 11.82 66.6044 11.82C65.4044 11.82 64.5194 11.91 63.9494 12.09C63.3794 12.27 62.9894 12.585 62.7794 13.035C62.5994 13.455 62.5094 14.085 62.5094 14.925V23.25C62.5094 24.18 62.5994 24.855 62.7794 25.275C62.9894 25.665 63.3944 25.95 63.9944 26.13C64.5944 26.28 65.5844 26.355 66.9644 26.355Z" fill="#141414"/>
<path d="M94.8823 30.45C87.1723 30.45 83.3173 28.095 83.3173 23.385V15.555C83.3173 12.825 84.1873 10.845 85.9273 9.615C87.6973 8.385 90.4123 7.77 94.0723 7.77C97.5223 7.77 100.042 8.37 101.632 9.57C103.252 10.74 104.062 12.735 104.062 15.555V20.865H89.9323V22.845C89.9323 24.105 90.3823 25.005 91.2823 25.545C92.1823 26.085 93.8023 26.355 96.1423 26.355C98.3023 26.355 100.732 26.04 103.432 25.41V29.595C100.762 30.165 97.9123 30.45 94.8823 30.45ZM97.8073 17.13V13.98C97.8073 13.26 97.5073 12.72 96.9073 12.36C96.3373 12 95.3623 11.82 93.9823 11.82C92.3923 11.82 91.3273 12 90.7873 12.36C90.2173 12.75 89.9323 13.29 89.9323 13.98V17.13H97.8073Z" fill="#141414"/>
<path d="M109.084 8.22H115.339V12.045C115.339 11.355 115.624 10.68 116.194 10.02C116.764 9.36 117.484 8.82 118.354 8.4C119.254 7.98 120.139 7.77 121.009 7.77H123.349V13.215H121.099C119.239 13.215 117.859 13.5 116.959 14.07C116.089 14.64 115.654 15.585 115.654 16.905V30H109.084V8.22Z" fill="#141414"/>
<path d="M134.461 0.795001H141.571L149.401 24.15H149.581L157.411 0.795001H164.341L153.541 30H144.946L134.461 0.795001Z" fill="#141414"/>
<path d="M167.404 0.345001H173.974V5.655H167.404V0.345001ZM167.404 8.22H173.974V30H167.404V8.22Z" fill="#141414"/>
<path d="M177.044 8.22H184.019L188.789 23.295L193.379 8.22H199.994L191.984 30H185.324L177.044 8.22Z" fill="#141414"/>
<path d="M203.043 0.345001H209.613V5.655H203.043V0.345001ZM203.043 8.22H209.613V30H203.043V8.22Z" fill="#141414"/>
<path d="M221.729 30.45C219.689 30.45 218.158 30.27 217.138 29.91C216.148 29.52 215.443 28.845 215.023 27.885C214.633 26.895 214.438 25.425 214.438 23.475C214.438 21.735 214.648 20.37 215.068 19.38C215.518 18.39 216.223 17.685 217.184 17.265C218.174 16.815 219.523 16.59 221.233 16.59H228.613V15.105C228.613 14.175 228.479 13.485 228.208 13.035C227.968 12.585 227.503 12.27 226.813 12.09C226.153 11.91 225.148 11.82 223.798 11.82C221.938 11.82 219.389 12 216.148 12.36V8.22C218.518 7.92 221.293 7.77 224.473 7.77C227.263 7.77 229.408 7.98 230.908 8.4C232.438 8.82 233.533 9.54 234.193 10.56C234.854 11.58 235.184 13.065 235.184 15.015V30H228.749V28.02C228.239 28.89 227.548 29.505 226.678 29.865C225.809 30.255 224.158 30.45 221.729 30.45ZM224.294 26.355C225.614 26.355 226.558 26.31 227.128 26.22C227.548 26.16 227.833 26.07 227.983 25.95C228.163 25.83 228.314 25.635 228.434 25.365C228.553 25.155 228.613 24.84 228.613 24.42V20.19H224.113C223.093 20.19 222.373 20.265 221.953 20.415C221.533 20.535 221.248 20.805 221.098 21.225C220.949 21.615 220.873 22.32 220.873 23.34C220.873 24.33 220.949 25.02 221.098 25.41C221.248 25.8 221.533 26.055 221.953 26.175C222.403 26.295 223.184 26.355 224.294 26.355Z" fill="#141414"/>
<path d="M240.964 8.22H247.444V10.875C247.954 8.805 250.279 7.77 254.419 7.77C257.209 7.77 259.159 8.28 260.269 9.3C261.409 10.29 261.979 11.865 261.979 14.025V30H255.409V14.88C255.409 14.04 255.319 13.41 255.139 12.99C254.989 12.57 254.659 12.27 254.149 12.09C253.669 11.91 252.919 11.82 251.899 11.82C250.609 11.82 249.664 11.91 249.064 12.09C248.464 12.24 248.059 12.525 247.849 12.945C247.639 13.365 247.534 14.01 247.534 14.88V30H240.964V8.22Z" fill="#141414"/>
<path d="M267.907 0.345001H274.477V5.655H267.907V0.345001ZM267.907 8.22H274.477V30H267.907V8.22Z" fill="#141414"/>
<path d="M133.267 30L120 17.1178L122.242 15L135.509 27.8822L133.267 30Z" fill="#FF0000"/>
<path d="M124.415 27.8312L137.773 15.0364L140 17.1688L126.641 29.9636L124.415 27.8312Z" fill="#890000"/>
</svg>
