<svg width="275" height="40" viewBox="0 0 275 40" fill="none" xmlns="http://www.w3.org/2000/svg">
<path d="M0 0.45H13.14C17.04 0.45 19.86 0.93 21.6 1.89C23.34 2.82 24.21 4.395 24.21 6.615V11.745C24.21 13.455 23.595 14.805 22.365 15.795C21.165 16.755 19.56 17.37 17.55 17.64L26.01 29.655H17.91L10.26 18.18H7.02V29.655H0V0.45ZM13.05 13.545C14.7 13.545 15.825 13.335 16.425 12.915C17.025 12.465 17.325 11.61 17.325 10.35V8.28C17.325 7.2 16.995 6.465 16.335 6.075C15.705 5.655 14.61 5.445 13.05 5.445H7.02V13.545H13.05Z" fill="#3D3D3D"/>
<path d="M40.2286 30.105C38.8786 30.105 37.7686 30.06 36.8986 29.97C36.0286 29.88 35.0986 29.7 34.1086 29.43C33.0286 29.13 32.1586 28.71 31.4986 28.17C30.8386 27.6 30.2836 26.805 29.8336 25.785C29.3836 24.795 29.1586 23.595 29.1586 22.185V15.75C29.1586 14.31 29.3836 13.05 29.8336 11.97C30.2836 10.89 30.8686 10.05 31.5886 9.45C32.2186 8.94 33.0436 8.52 34.0636 8.19C35.1136 7.83 36.1336 7.605 37.1236 7.515C38.2636 7.455 39.2986 7.425 40.2286 7.425C41.6086 7.425 42.7036 7.47 43.5136 7.56C44.3536 7.62 45.2686 7.8 46.2586 8.1C47.3386 8.43 48.2086 8.88 48.8686 9.45C49.5586 10.02 50.1436 10.83 50.6236 11.88C51.0736 12.96 51.2986 14.25 51.2986 15.75V22.185C51.2986 23.535 51.0736 24.72 50.6236 25.74C50.2036 26.76 49.6486 27.555 48.9586 28.125C48.3586 28.635 47.5336 29.055 46.4836 29.385C45.4636 29.685 44.4586 29.88 43.4686 29.97C42.5686 30.06 41.4886 30.105 40.2286 30.105ZM40.2286 26.01C41.4586 26.01 42.3886 25.92 43.0186 25.74C43.6486 25.53 44.0836 25.215 44.3236 24.795C44.5936 24.375 44.7286 23.76 44.7286 22.95V14.715C44.7286 13.515 44.4136 12.675 43.7836 12.195C43.1536 11.715 41.9686 11.475 40.2286 11.475C38.4886 11.475 37.3036 11.715 36.6736 12.195C36.0436 12.675 35.7286 13.515 35.7286 14.715V22.95C35.7286 23.76 35.8486 24.375 36.0886 24.795C36.3586 25.215 36.8086 25.53 37.4386 25.74C38.0686 25.92 38.9986 26.01 40.2286 26.01Z" fill="#3D3D3D"/>
<path d="M65.2395 39.555C61.6995 39.555 59.0745 39.45 57.3645 39.24V34.83C60.1845 35.22 62.8095 35.415 65.2395 35.415C67.4595 35.415 69.0495 35.055 70.0095 34.335C70.9695 33.615 71.4495 32.415 71.4495 30.735V27.225C70.9095 28.005 70.3845 28.605 69.8745 29.025C69.3644 29.415 68.6895 29.685 67.8495 29.835C67.0395 30.015 65.9145 30.105 64.4745 30.105C62.3445 30.105 60.6495 29.91 59.3895 29.52C58.1295 29.1 57.2145 28.425 56.6445 27.495C56.0745 26.535 55.7895 25.215 55.7895 23.535V15.03C55.7895 13.02 56.0445 11.475 56.5545 10.395C57.0945 9.315 57.9945 8.55 59.2545 8.1C60.5445 7.65 62.3895 7.425 64.7895 7.425C66.3494 7.425 67.5495 7.515 68.3895 7.695C69.1994 7.875 69.8145 8.145 70.2345 8.505C70.6544 8.865 71.1345 9.48 71.6745 10.35V7.875H78.0195V30.825C78.0195 33.915 76.9545 36.135 74.8245 37.485C72.7245 38.865 69.5295 39.555 65.2395 39.555ZM66.8145 26.01C68.1045 26.01 69.0645 25.92 69.6945 25.74C70.3545 25.56 70.8045 25.275 71.0445 24.885C71.3145 24.465 71.4495 23.88 71.4495 23.13V14.355C71.4495 13.545 71.3295 12.945 71.0895 12.555C70.8495 12.135 70.3845 11.85 69.6945 11.7C69.0045 11.55 67.9245 11.475 66.4545 11.475C65.2545 11.475 64.3695 11.565 63.7995 11.745C63.2295 11.925 62.8395 12.24 62.6295 12.69C62.4495 13.11 62.3595 13.74 62.3595 14.58V22.905C62.3595 23.835 62.4495 24.51 62.6295 24.93C62.8395 25.32 63.2445 25.605 63.8445 25.785C64.4445 25.935 65.4345 26.01 66.8145 26.01Z" fill="#3D3D3D"/>
<path d="M94.7324 30.105C87.0224 30.105 83.1674 27.75 83.1674 23.04V15.21C83.1674 12.48 84.0374 10.5 85.7774 9.27C87.5474 8.04 90.2624 7.425 93.9224 7.425C97.3724 7.425 99.8924 8.025 101.482 9.225C103.102 10.395 103.912 12.39 103.912 15.21V20.52H89.7824V22.5C89.7824 23.76 90.2324 24.66 91.1324 25.2C92.0324 25.74 93.6524 26.01 95.9924 26.01C98.1524 26.01 100.582 25.695 103.282 25.065V29.25C100.612 29.82 97.7624 30.105 94.7324 30.105ZM97.6574 16.785V13.635C97.6574 12.915 97.3574 12.375 96.7574 12.015C96.1874 11.655 95.2124 11.475 93.8324 11.475C92.2424 11.475 91.1774 11.655 90.6374 12.015C90.0674 12.405 89.7824 12.945 89.7824 13.635V16.785H97.6574Z" fill="#3D3D3D"/>
<path d="M108.934 7.875H115.189V11.7C115.189 11.01 115.474 10.335 116.044 9.675C116.614 9.015 117.334 8.475 118.204 8.055C119.104 7.635 119.989 7.425 120.859 7.425H123.199V12.87H120.949C119.089 12.87 117.709 13.155 116.809 13.725C115.939 14.295 115.504 15.24 115.504 16.56V29.655H108.934V7.875Z" fill="#3D3D3D"/>
<path d="M134.311 0.45H141.421L149.251 23.805H149.431L157.261 0.45H164.191L153.391 29.655H144.796L134.311 0.45Z" fill="#3D3D3D"/>
<path d="M167.254 0H173.824V5.31H167.254V0ZM167.254 7.875H173.824V29.655H167.254V7.875Z" fill="#3D3D3D"/>
<path d="M176.894 7.875H183.869L188.639 22.95L193.229 7.875H199.844L191.834 29.655H185.174L176.894 7.875Z" fill="#3D3D3D"/>
<path d="M202.893 0H209.463V5.31H202.893V0ZM202.893 7.875H209.463V29.655H202.893V7.875Z" fill="#3D3D3D"/>
<path d="M221.579 30.105C219.539 30.105 218.009 29.925 216.989 29.565C215.999 29.175 215.294 28.5 214.874 27.54C214.484 26.55 214.289 25.08 214.289 23.13C214.289 21.39 214.499 20.025 214.919 19.035C215.369 18.045 216.074 17.34 217.034 16.92C218.024 16.47 219.374 16.245 221.084 16.245H228.464V14.76C228.464 13.83 228.329 13.14 228.059 12.69C227.819 12.24 227.354 11.925 226.664 11.745C226.004 11.565 224.999 11.475 223.649 11.475C221.789 11.475 219.239 11.655 215.999 12.015V7.875C218.369 7.575 221.144 7.425 224.324 7.425C227.114 7.425 229.259 7.635 230.759 8.055C232.289 8.475 233.384 9.195 234.044 10.215C234.704 11.235 235.034 12.72 235.034 14.67V29.655H228.599V27.675C228.089 28.545 227.399 29.16 226.529 29.52C225.659 29.91 224.009 30.105 221.579 30.105ZM224.144 26.01C225.464 26.01 226.409 25.965 226.979 25.875C227.399 25.815 227.684 25.725 227.834 25.605C228.014 25.485 228.164 25.29 228.284 25.02C228.404 24.81 228.464 24.495 228.464 24.075V19.845H223.964C222.944 19.845 222.224 19.92 221.804 20.07C221.384 20.19 221.099 20.46 220.949 20.88C220.799 21.27 220.724 21.975 220.724 22.995C220.724 23.985 220.799 24.675 220.949 25.065C221.099 25.455 221.384 25.71 221.804 25.83C222.254 25.95 223.034 26.01 224.144 26.01Z" fill="#3D3D3D"/>
<path d="M240.814 7.875H247.294V10.53C247.804 8.46 250.129 7.425 254.269 7.425C257.059 7.425 259.009 7.935 260.119 8.955C261.259 9.945 261.829 11.52 261.829 13.68V29.655H255.259V14.535C255.259 13.695 255.169 13.065 254.989 12.645C254.839 12.225 254.509 11.925 253.999 11.745C253.519 11.565 252.769 11.475 251.749 11.475C250.459 11.475 249.514 11.565 248.914 11.745C248.314 11.895 247.909 12.18 247.699 12.6C247.489 13.02 247.384 13.665 247.384 14.535V29.655H240.814V7.875Z" fill="#3D3D3D"/>
<path d="M267.757 0H274.327V5.31H267.757V0ZM267.757 7.875H274.327V29.655H267.757V7.875Z" fill="#3D3D3D"/>
<path d="M133.117 29.655L119.85 16.7728L122.092 14.655L135.359 27.5372L133.117 29.655Z" fill="#FF0000"/>
<path d="M124.265 27.4862L137.624 14.6914L139.85 16.8238L126.491 29.6186L124.265 27.4862Z" fill="#890000"/>
</svg>
